<svg id="e9aDCYK2efA1" xmlns="http://www.w3.org/2000/svg" xmlns:xlink="http://www.w3.org/1999/xlink" viewBox="5 0 24 23.16" shape-rendering="geometricPrecision" text-rendering="geometricPrecision" project-id="c2da68f55ba24f4690634310491e36d7" export-id="c2eb8842237e40e9a772804b3e18e2c7" cached="false"><defs><linearGradient id="e9aDCYK2efA2-fill" x1="0.034422" y1="0.936273" x2="1.026953" y2="-0.032724" spreadMethod="pad" gradientUnits="objectBoundingBox" gradientTransform="translate(0 0)"><stop id="e9aDCYK2efA2-fill-0" offset="0%" stop-color="#3b4aff"/><stop id="e9aDCYK2efA2-fill-1" offset="100%" stop-color="#239f62"/></linearGradient><linearGradient id="e9aDCYK2efA3-fill" x1="0.06113" y1="0.935472" x2="1.172622" y2="-0.143768" spreadMethod="pad" gradientUnits="objectBoundingBox" gradientTransform="translate(0 0)"><stop id="e9aDCYK2efA3-fill-0" offset="0%" stop-color="#ff403b"/><stop id="e9aDCYK2efA3-fill-1" offset="100%" stop-color="#dcd818"/></linearGradient><linearGradient id="e9aDCYK2efA4-fill" x1="0.06113" y1="0.935472" x2="1.172622" y2="-0.143768" spreadMethod="pad" gradientUnits="objectBoundingBox" gradientTransform="translate(0 0)"><stop id="e9aDCYK2efA4-fill-0" offset="0%" stop-color="#050505"/><stop id="e9aDCYK2efA4-fill-1" offset="100%" stop-color="#fa0645"/></linearGradient></defs><path d="M9.424242,22.906577c0,0-3.263242,1.137612-4.263242-1.862388C5.161,18.044189,6,16,8,13s4-5,7-9c-1,2-2,6-1,5c3-1,4.6667-4.6667,7-7-.3333,1.3333-2,4-1,4c3-1,7-5,9-6-1,2-2,3-3,5-1.99882,3.18809-4.235567,7.573576-5,8c.209109.263631,1.405275.043166,2.572807-1.30303-2.6667,3.3333-3.572806,3.664153-6.572806,6.664153C18.171876,17.77247,19,19,22,17c-2.3333,2-4.889197,3.523713-7.889197,4.523713L9.424242,22.906577Z" transform="matrix(.99 0 0 0.99 0.17 0)" fill="url(#e9aDCYK2efA2-fill)"/><path d="M11,23c0,0-4.45359,1.174619-5.45359-1.825381C4.929459,17.936736,6,16,8,13s4-5,7-9c-1,2-2,6-1,5c3-1,5.6667-4.427974,8-6.761274C21.6667,3.572026,19,6,20,6c3-1,9.56-6.325888,11.56-7.325888-1,2-4.280001,4.717925-5.280001,6.717925C25.279999,8.392037,23,11,22,13c1,0,2-2,3-2-2.6667,3.3333-5,5-8,8c2-1,2.546876-.000001,5.546876-2.000001C20.213576,18.999999,18,21,15,22l-4,1Z" transform="matrix(.75 0 0 0.75 1.147175 5.472733)" fill="url(#e9aDCYK2efA3-fill)"/><path d="M11,23c0,0-4.45359,1.174619-5.45359-1.825381C4.929459,17.936736,6,16,8,13s4-5,7-9c-1,2-2,6-1,5c3-1,5.6667-4.427974,8-6.761274C21.6667,3.572026,19,6,20,6c3-1,9.56-6.325888,11.56-7.325888-1,2-4.280001,4.717925-5.280001,6.717925C25.279999,8.392037,23,11,22,13c1,0,2-2,3-2-2.6667,3.3333-5,5-8,8c2-1,2.546876-.000001,5.546876-2.000001C20.213576,18.999999,18,21,15,22l-4,1Z" transform="matrix(.5 0 0 0.5 2.723715 10.938369)" fill="url(#e9aDCYK2efA4-fill)"/></svg>
